<svg xmlns="http://www.w3.org/2000/svg" xmlns:xlink="http://www.w3.org/1999/xlink" version="1.1" x="0px" y="0px" viewBox="0 0 150 150" enable-background="new 0 0 150 150" xml:space="preserve">
<g><g><g><g><path d="M71.141,32.401H29.821c-0.989,0-1.786-0.804-1.786-1.79s0.797-1.785,1.786-1.785h41.319    
  c0.985,0,1.786,0.799,1.786,1.785S72.126,32.401,71.141,32.401z" fill="white"/></g></g></g><g><g><g>
  <path d="M71.141,49.287H23.862c-0.986,0-1.79-0.803-1.79-1.79s0.804-1.79,1.79-1.79h47.278c0.985,0,1.786,0.803,1.786,1.79      S72.126,49.287,71.141,49.287z" fill="white"/></g></g></g>
  <g><g><g><path d="M71.141,66.174H41.738c-0.986,0-1.786-0.804-1.786-1.79c0-0.99,0.8-1.787,1.786-1.787h29.402      c0.985,0,1.786,0.797,1.786,1.787C72.927,65.37,72.126,66.174,71.141,66.174z" fill="white"/>
  </g></g></g></g><path d="M47.498,3.756c-24.119,0-43.742,19.622-43.742,43.741c0,24.122,19.623,43.747,43.742,43.747  c24.122,0,43.746-19.625,43.746-43.747C91.244,23.378,71.62,3.756,47.498,3.756z M47.498,84.831  c-20.584,0-37.33-16.748-37.33-37.334c0-20.583,16.746-37.329,37.33-37.329c20.586,0,37.333,16.746,37.333,37.329  C84.831,68.083,68.084,84.831,47.498,84.831z" fill="white"/>
  </svg>